# xmcd
#
# Track frame offsets:
# 150
# 10665
# 100150
# 214405
#
# Disc length: 3691 seconds
#
# Revision: 0
# Processed by: cddbd v1.4PL0 Copyright (c) Steve Scherf et al.
# Submitted via: Audion 3.0.2 (http://www.panic.com/audion/)
#
DISCID=2c0e6904
DTITLE=joyce, james - james joyce2
DYEAR=1900
DGENRE=
TTITLE0=1
TTITLE1=2
TTITLE2=3
TTITLE3=4
EXTD=
EXTT0=
EXTT1=
EXTT2=
EXTT3=
PLAYORDER=
